<?xml version="1.0" encoding="utf-8"?>
<!-- Svg Vector Icons : http://www.onlinewebfonts.com/icon -->
<!DOCTYPE svg PUBLIC "-//W3C//DTD SVG 1.1//EN" "http://www.w3.org/Graphics/SVG/1.1/DTD/svg11.dtd">
<svg version="1.1" xmlns="http://www.w3.org/2000/svg" xmlns:xlink="http://www.w3.org/1999/xlink" x="0px" y="0px" viewBox="0 0 1000 1000" enable-background="new 0 0 1000 1000" xml:space="preserve">
<metadata> Svg Vector Icons : http://www.onlinewebfonts.com/icon </metadata>
<g><path d="M790.3,86.7c15-15,40.6-13.5,57.2,3.1l62.5,62.5c16.6,16.6,18.1,42.4,3.1,57.2L839.9,283L718,159.3L790.3,86.7L790.3,86.7z M787.8,334.9L296,826.9L173.2,704.1l492.9-492.9L787.8,334.9L787.8,334.9z M300.9,920.4l661.8-661.6c39.3-39.3,35.8-107.1-8-150.8l-62.5-62.5c-43.9-43.9-111.5-47.5-151-8.2L79.4,699.1L300.9,920.4L300.9,920.4z M79.6,698.9L11.1,950c-2.9,11,0.2,22.7,8,30.7c8,7.9,19.7,11,30.7,8l251.1-68.5l-51.4-51.5l-163,44.6L131,750.1L79.6,698.9L79.6,698.9z"/></g>
</svg>